<svg width="208" height="198" viewBox="0 0 208 198" fill="none" xmlns="http://www.w3.org/2000/svg">
<path d="M60 98.6533C60 116.097 45.7077 128.653 30 128.653C14.2923 128.653 0 116.097 0 98.6533C0 81.2092 14.2923 68.6533 30 68.6533C45.7077 68.6533 60 81.2092 60 98.6533Z" fill="#29A964"/>
<path fill-rule="evenodd" clip-rule="evenodd" d="M208 98.6533C208 116.097 193.708 128.653 178 128.653C162.292 128.653 148 116.097 148 98.6533C148 81.2092 162.292 68.6533 178 68.6533C193.708 68.6533 208 81.2092 208 98.6533Z" fill="#1A9352"/>
<path d="M41.5 11.7155C39.567 8.36745 40.7141 4.08632 44.0622 2.15332C47.4102 0.220319 51.6914 1.36745 53.6244 4.7155L71.6244 35.8924C73.5574 39.2404 72.4102 43.5216 69.0622 45.4546C65.7141 47.3876 61.433 46.2404 59.5 42.8924L41.5 11.7155Z" fill="#29A964"/>
<path d="M166.5 11.7155C168.433 8.36745 167.286 4.08632 163.938 2.15332C160.59 0.220319 156.309 1.36745 154.376 4.7155L136.376 35.8924C134.443 39.2404 135.59 43.5216 138.938 45.4546C142.286 47.3876 146.567 46.2404 148.5 42.8924L166.5 11.7155Z" fill="#1A9352"/>
<path fill-rule="evenodd" clip-rule="evenodd" d="M104 197.306C106.715 197.314 109.432 196.631 111.878 195.258L185.833 153.738C190.877 150.906 194 145.572 194 139.787V57.5198C194 51.7347 190.877 46.4002 185.833 43.5682L111.878 2.04841C109.432 0.67511 106.715 -0.00774671 104 6.62867e-05V197.306Z" fill="#29A964"/>
<path fill-rule="evenodd" clip-rule="evenodd" d="M104 197.306C101.285 197.314 98.5676 196.631 96.1216 195.258L22.1672 153.738C17.1228 150.906 14 145.572 14 139.787V57.5198C14 51.7347 17.1228 46.4002 22.1672 43.5682L96.1216 2.04841C98.5676 0.67511 101.285 -0.00774671 104 6.62867e-05V197.306Z" fill="#22CC70"/>
<path d="M159.67 127.568C165.888 125.211 170 119.255 170 112.606V84.6999C170 78.0509 165.888 72.0948 159.67 69.7384L109.704 50.8012C106.052 49.4172 102.021 49.4165 98.3686 50.7991L48.3351 69.7406C42.1148 72.0955 38 78.0531 38 84.7042V112.602C38 119.253 42.1148 125.211 48.3351 127.566L98.3686 146.507C102.021 147.89 106.052 147.889 109.704 146.505L159.67 127.568Z" fill="#3CFF43"/>
<path fill-rule="evenodd" clip-rule="evenodd" d="M134.001 98.3244C130.744 98.3244 127.752 100.074 125.964 102.974C123.94 106.257 119.629 107.283 116.335 105.265C113.041 103.248 112.012 98.9513 114.036 95.6683C118.157 88.9844 125.484 84.3705 134.001 84.3705C142.516 84.3705 149.845 88.984 153.965 95.6694C155.988 98.9528 154.958 103.249 151.664 105.266C148.37 107.283 144.059 106.256 142.035 102.973C140.249 100.074 137.257 98.3244 134.001 98.3244Z" fill="#1A9352"/>
<path fill-rule="evenodd" clip-rule="evenodd" d="M74.0006 98.3244C70.7439 98.3244 67.7517 100.074 65.964 102.974C63.9399 106.257 59.629 107.283 56.3352 105.265C53.0414 103.248 52.012 98.9513 54.036 95.6683C58.1569 88.9844 65.484 84.3705 74.0006 84.3705C82.5155 84.3705 89.8446 88.984 93.9647 95.6694C95.9881 98.9528 94.9579 103.249 91.6638 105.266C88.3696 107.283 84.0588 106.256 82.0354 102.973C80.2493 100.074 77.2566 98.3244 74.0006 98.3244Z" fill="#1A9352"/>
</svg>
